# Blender v2.74 (sub 0) OBJ File: 'fox.blend'
# www.blender.org
mtllib fox.mtl
o Cube
v 0.006575 0.131990 0.095005
v 0.061359 -0.061359 0.073024
v -0.061359 -0.061359 0.061359
v -0.024105 0.122670 0.085685
v -0.027418 0.140167 0.015005
v 0.061359 0.061359 0.061359
v -0.061359 0.061359 0.061359
v 0.059654 -0.139654 0.068529
v 0.000000 -0.080000 0.042056
v -0.000000 0.080000 0.080000
v 0.126002 -0.046686 0.068529
v 0.080000 0.000000 0.042056
v -0.080000 0.000000 0.080000
v -0.000000 0.000000 0.096352
v -0.074686 0.014713 0.061423
v -0.061490 0.049880 0.049880
v 0.125931 -0.132400 0.099497
v -0.030679 0.070679 0.070679
v 0.006575 0.148343 0.015005
v -0.006792 0.194713 0.053675
v 0.004972 0.196925 0.053675
v 0.004972 0.192501 0.075319
v -0.005895 0.189979 0.072797
v 0.358409 -0.123293 0.102636
v 0.358481 -0.037579 0.071668
v 0.071358 -0.307522 0.100561
v 0.071358 -0.323875 0.032032
v 0.159872 -0.314428 0.032032
v 0.137635 -0.300268 0.131529
v 0.401043 -0.136425 0.102636
v 0.486512 -0.129939 0.071668
v 0.434654 -0.273448 0.127080
v 0.520122 -0.266962 0.096113
v 0.524876 -0.282608 0.024445
v 0.422237 -0.296704 0.024445
v 0.372931 -0.127766 0.102636
v 0.454157 -0.051612 0.071668
v 0.005636 0.134080 -0.097786
v 0.061359 -0.061359 -0.073024
v -0.061359 -0.061359 -0.061359
v -0.025043 0.124760 -0.088466
v -0.028357 0.142256 -0.017786
v 0.061359 0.061359 -0.061359
v -0.061359 0.061359 -0.061359
v 0.059654 -0.139654 -0.068529
v -0.080000 -0.080000 0.000000
v 0.080000 0.080000 0.000000
v -0.080000 0.080000 0.000000
v -0.040147 0.088176 0.000000
v 0.000000 -0.080000 -0.042056
v -0.000000 0.080000 -0.080000
v -0.000000 0.096352 0.000000
v 0.000000 -0.096352 0.000000
v 0.126002 -0.046686 -0.068529
v 0.080000 0.000000 -0.042056
v -0.080000 0.000000 -0.080000
v 0.141966 -0.043143 0.000000
v -0.096352 0.000000 0.000000
v 0.096352 0.000000 0.000000
v 0.059654 -0.156007 0.000000
v -0.000000 0.000000 -0.096352
v -0.074686 0.014713 -0.061423
v -0.061490 0.049880 -0.049880
v 0.125931 -0.132400 -0.099497
v 0.148168 -0.146560 0.000000
v -0.078489 0.065665 0.000000
v -0.086058 0.014394 0.000000
v -0.030679 0.070679 -0.070679
v 0.005636 0.150432 -0.017786
v -0.006792 0.194713 -0.056456
v 0.004972 0.196925 -0.056456
v 0.004972 0.192501 -0.078100
v -0.005895 0.189979 -0.075578
v 0.358409 -0.123293 -0.102636
v 0.358481 -0.037579 -0.071668
v 0.374444 -0.034036 0.000000
v 0.380647 -0.137453 0.000000
v 0.071358 -0.307522 -0.100561
v 0.071358 -0.323875 -0.032032
v 0.159872 -0.314428 -0.032032
v 0.137635 -0.300268 -0.131529
v 0.401043 -0.136425 -0.102636
v 0.486512 -0.129939 -0.071668
v 0.491266 -0.145585 0.000000
v 0.388626 -0.159680 0.000000
v 0.434654 -0.273448 -0.127080
v 0.520122 -0.266962 -0.096113
v 0.524876 -0.282608 -0.024445
v 0.422237 -0.296704 -0.024445
v 0.372931 -0.127766 -0.102636
v 0.454157 -0.051612 -0.071668
v 0.467857 -0.045188 0.000000
vt 0.290741 0.554590
vt 0.290742 0.654326
vt 0.220639 0.638648
vt 0.128742 0.010864
vt 0.149794 0.067093
vt 0.079330 0.078283
vt 0.921308 0.112815
vt 0.921254 0.060008
vt 0.992398 0.062692
vt 0.771390 0.216008
vt 0.787186 0.156332
vt 0.849021 0.175105
vt 0.813827 0.013907
vt 0.864838 0.013716
vt 0.850322 0.061673
vt 0.695652 0.985982
vt 0.695652 0.936921
vt 0.724657 0.949661
vt 0.586848 0.884310
vt 0.666388 0.877377
vt 0.666388 0.928851
vt 0.951656 0.000000
vt 0.021135 0.141305
vt 0.079645 0.152128
vt 0.180678 0.867184
vt 0.181126 0.944993
vt 0.121641 0.926862
vt 0.141141 0.130105
vt 0.218841 0.187217
vt 0.132163 0.193676
vt 0.070150 0.000000
vt 0.956827 0.414947
vt 0.993198 0.400036
vt 0.993198 0.452225
vt 0.299635 0.850329
vt 0.377605 0.850329
vt 0.377877 0.891233
vt 0.771733 0.114230
vt 0.771390 0.052461
vt 0.846171 0.075388
vt 0.968515 0.613718
vt 0.929324 0.613718
vt 0.947041 0.554040
vt 0.216057 0.120563
vt 0.851033 0.216008
vt 0.899985 0.149353
vt 0.792984 0.043810
vt 0.806311 0.000000
vt 0.486454 0.791056
vt 0.486454 0.564827
vt 0.586848 0.586219
vt 0.098359 0.773479
vt 0.098364 0.717398
vt 0.165396 0.733294
vt 0.868864 0.000419
vt 0.830638 0.711323
vt 0.830638 0.544975
vt 0.929324 0.547005
vt 0.782952 0.493140
vt 0.771390 0.493140
vt 0.772137 0.474542
vt 0.708004 0.877377
vt 0.718322 0.881228
vt 0.643539 0.984656
vt 0.622020 0.986531
vt 0.962616 0.466049
vt 0.991103 0.508602
vt 0.010201 0.022797
vt 0.586848 0.572170
vt 0.586848 0.544975
vt 0.656951 0.861760
vt 0.589919 0.877377
vt 0.586848 0.651106
vt 0.231153 0.412804
vt 0.915319 0.882364
vt 0.915319 0.981472
vt 0.845372 0.966000
vt 0.383276 0.117555
vt 0.915629 0.874724
vt 0.830638 0.882364
vt 0.830638 0.720993
vt 0.129698 0.554590
vt 0.196730 0.570486
vt 0.299635 0.795610
vt 0.299635 0.929856
vt 0.196730 0.924897
vt 0.656951 0.635489
vt 0.586848 0.558469
vt 0.144475 0.419262
vt 0.236767 0.426393
vt 0.485903 0.913047
vt 0.386060 0.900657
vt 0.399098 0.832029
vt 0.727054 0.941797
vt 0.727054 0.807539
vt 0.826282 0.812784
vt 0.360845 0.638648
vt 0.384757 0.774972
vt 0.245101 0.533921
vt 0.247636 0.452699
vt 0.386060 0.473368
vt 0.360843 0.559113
vt 0.166555 0.510292
vt 0.464947 0.465985
vt 0.397392 0.524731
vt 0.386060 0.461085
vt 0.986625 0.769056
vt 0.915629 0.774338
vt 0.915691 0.718823
vt 0.849021 0.256914
vt 0.787186 0.275688
vt 0.907267 0.041871
vt 0.666388 0.947547
vt 0.695652 0.933485
vt 0.695652 0.985937
vt 0.979217 0.159175
vt 0.979217 0.213495
vt 0.899985 0.203673
vt 0.966813 0.829862
vt 0.947606 0.831291
vt 0.408288 0.408423
vt 0.121641 0.807506
vt 0.181126 0.789375
vt 0.519506 0.356663
vt 0.604981 0.359375
vt 0.528341 0.418539
vt 0.538794 0.484574
vt 0.956827 0.384812
vt 0.962718 0.330615
vt 0.993807 0.344695
vt 0.377877 0.809425
vt 0.886676 0.148630
vt 0.823780 0.149353
vt 0.947041 0.673396
vt 0.603934 0.428922
vt 0.898511 0.216004
vt 0.899985 0.282658
vt 0.921254 0.034400
vt 0.921254 0.097312
vt 0.908049 0.078246
vt 0.386060 0.586219
vt 0.031331 0.733294
vt 0.771390 0.284690
vt 0.870079 0.282658
vt 0.870079 0.449007
vt 0.782205 0.453492
vt 0.782952 0.472090
vt 0.771390 0.472090
vt 0.670912 0.881624
vt 0.681245 0.877377
vt 0.942883 0.260909
vt 0.921447 0.258252
vt 0.975297 0.282658
vt 0.986165 0.286944
vt 0.468177 0.400684
vt 0.386060 0.572170
vt 0.386060 0.544975
vt 0.727054 0.651106
vt 0.531525 0.134801
vt 0.616999 0.137513
vt 1.000000 0.981472
vt 0.915319 0.962859
vt 0.930053 0.897836
vt 0.771390 0.359006
vt 0.770343 0.428552
vt 0.870079 0.441091
vt 0.956827 0.287724
vt 0.000000 0.570486
vt 0.067032 0.554590
vt 0.000000 0.794338
vt 0.102903 0.789375
vt 0.102903 0.923620
vt 0.727054 0.709054
vt 0.729672 0.686461
vt 0.830447 0.677685
vt 0.656951 0.544975
vt 0.727054 0.558469
vt 0.553653 0.045538
vt 0.622634 0.124201
vt 0.586297 0.912494
vt 0.485903 0.900036
vt 0.516194 0.816813
vt 0.729863 0.553751
vt 0.266833 0.790651
vt 0.196730 0.774972
vt 0.632621 0.022772
vt 0.770468 0.000000
vt 0.771390 0.075658
vt 0.633542 0.098430
vt 0.516613 0.537107
vt 0.456677 0.544975
vt 0.000000 0.085035
vt 0.992398 0.115688
vt 0.724657 0.998722
vt 0.586848 0.935783
vt 0.970903 0.000726
vt 0.102903 0.867184
vt 0.318176 0.910007
vt 0.977293 0.544975
vt 0.583778 0.812448
vt 0.139497 0.789375
vt 0.929324 0.713354
vt 0.782831 0.472090
vt 0.980415 0.512795
vt 0.486454 0.557433
vt 0.830638 0.900977
vt 0.386060 0.184209
vt 0.915629 0.713354
vt 0.196730 0.790651
vt 0.485903 0.812448
vt 0.826282 0.947042
vt 0.314654 0.790651
vt 0.383524 0.554590
vt 0.986625 0.713354
vt 0.666388 1.000000
vt 0.993807 0.400036
vt 0.318176 0.790651
vt 0.977293 0.682462
vt 0.389131 0.812448
vt 0.057222 0.789375
vt 0.771390 0.451039
vt 0.771511 0.451039
vt 0.723983 0.877377
vt 1.000000 0.882364
vt 0.956827 0.446157
vt 0.000000 0.928583
vt 0.830638 0.777024
vt 0.744286 0.807539
vt 0.586297 0.812448
vt 0.220637 0.559113
vn 0.973800 0.227000 -0.015000
vn 0.089300 -0.559300 0.824100
vn -0.991900 0.104500 0.072400
vn 0.925700 0.176000 0.334700
vn -0.923700 0.136400 0.358000
vn -0.212500 -0.246100 0.945700
vn 0.992700 -0.118500 -0.024200
vn -0.953300 0.279700 0.113900
vn 0.559300 -0.089300 0.824100
vn 0.337500 0.922300 0.188500
vn -0.011700 0.339800 0.940400
vn -0.188500 -0.337500 0.922300
vn -0.059100 0.290100 -0.955200
vn -0.187100 -0.915600 0.356000
vn -0.922300 -0.337500 0.188500
vn -0.189200 0.922100 0.337600
vn -0.440000 -0.041900 0.897000
vn 0.619600 0.747100 0.240900
vn -0.960000 0.274200 -0.057400
vn 0.038700 -0.988700 0.144800
vn -0.697300 -0.697300 0.166400
vn -0.950900 -0.213300 0.224100
vn -0.804700 0.575500 0.146000
vn 0.973500 0.106500 0.202400
vn -0.179200 0.953000 0.244300
vn -0.279700 0.290300 0.915100
vn 0.999600 0.028400 0.005800
vn -0.146300 0.608400 -0.780100
vn -0.188500 0.337500 0.922300
vn -0.293700 -0.953500 0.067900
vn -0.039700 0.998300 0.042400
vn -0.026000 0.339700 0.940200
vn 0.038400 -0.988100 0.149200
vn -0.431700 0.139900 0.891100
vn 0.019900 -0.186100 -0.982300
vn -0.997700 -0.066500 0.015900
vn -0.964500 -0.207400 0.163700
vn 0.144600 0.986200 0.081000
vn 0.104100 0.337900 0.935400
vn 0.132700 -0.966500 0.219800
vn 0.023300 -0.170000 -0.985200
vn 0.970600 0.240200 0.011900
vn 0.314400 0.240900 0.918200
vn 0.904400 0.373600 0.206400
vn 0.089800 0.291500 0.952300
vn -0.337500 0.188500 -0.922300
vn -0.994400 0.081700 -0.066800
vn 0.925700 0.176000 -0.334700
vn -0.923700 0.136400 -0.358000
vn -0.197300 -0.287700 -0.937200
vn 0.995100 -0.097200 0.019900
vn -0.946100 0.301300 -0.118900
vn 0.337500 0.188500 -0.922300
vn 0.337500 0.922300 -0.188500
vn -0.011700 0.339800 -0.940400
vn -0.239800 -0.545200 -0.803300
vn -0.076700 0.318700 0.944700
vn -0.187100 -0.915600 -0.356000
vn -0.922300 -0.188500 -0.337500
vn -0.189200 0.922100 -0.337600
vn -0.419100 -0.042900 -0.906900
vn 0.674100 0.712700 -0.193900
vn -0.960000 0.274200 0.057400
vn 0.038700 -0.988700 -0.144800
vn -0.697300 -0.697300 -0.166400
vn -0.950900 -0.213300 -0.224100
vn -0.837600 0.518700 -0.171200
vn 0.973500 0.106500 -0.202400
vn -0.179200 0.953000 -0.244300
vn -0.281700 0.303500 -0.910200
vn 0.999900 0.012200 -0.002500
vn -0.119200 0.633900 0.764200
vn 0.559300 -0.089300 -0.824100
vn -0.293700 -0.953500 -0.067900
vn -0.039100 0.998400 -0.040600
vn -0.026000 0.339700 -0.940200
vn 0.103300 -0.967500 -0.230900
vn -0.431700 0.139900 -0.891100
vn 0.019900 -0.186100 0.982300
vn -0.997700 -0.066500 -0.015900
vn -0.964500 -0.207400 -0.163700
vn 0.000000 0.000000 1.000000
vn 0.117800 0.986800 -0.111000
vn 0.048600 0.331300 -0.942300
vn 0.146600 -0.968400 -0.201700
vn 0.023300 -0.170000 0.985200
vn 0.970600 0.240200 -0.011900
vn 0.314400 0.240900 -0.918200
vn 0.328400 0.135700 -0.934800
vn 0.089300 -0.559300 -0.824100
vn -0.188500 -0.337500 -0.922300
vn -0.188500 0.337500 -0.922300
vn -0.239800 -0.545200 0.803300
vn 0.545200 0.239800 0.803300
vn -0.337500 0.188500 0.922300
vn 0.337500 0.188500 0.922300
vn -0.966700 0.186000 0.175500
vn 0.915600 0.187100 0.356000
vn -0.904300 0.393600 0.165400
vn 0.188500 0.922300 0.337500
vn -0.042900 0.460500 0.886600
vn -0.068500 0.284600 -0.956200
vn -0.176000 -0.925700 0.334700
vn -0.922300 -0.188500 0.337500
vn -0.353900 0.895700 0.269100
vn -0.419100 -0.042900 0.906900
vn 0.674100 0.712700 0.193900
vn -0.929900 0.265300 -0.254700
vn 0.036700 -0.988200 0.148800
vn -0.737800 -0.629200 0.244600
vn -0.951000 -0.100200 0.292400
vn -0.837600 0.518700 0.171200
vn -0.264100 0.945000 0.193200
vn -0.353500 0.267300 0.896400
vn -0.115900 0.616200 -0.779000
vn -0.924600 -0.331900 0.187100
vn -0.039100 0.998400 0.040600
vn 0.103300 -0.967500 0.230900
vn 0.117800 0.986800 0.111000
vn 0.048600 0.331300 0.942300
vn 0.146600 -0.968400 0.201700
vn 0.973800 0.227000 0.015000
vn 0.328400 0.135700 0.934800
vn -0.973100 0.156500 -0.169100
vn 0.915600 0.187100 -0.356000
vn -0.904300 0.393600 -0.165400
vn 0.188500 0.922300 -0.337500
vn -0.042900 0.460500 -0.886600
vn 0.545200 0.239800 -0.803300
vn -0.066100 0.324700 0.943500
vn -0.176000 -0.925700 -0.334700
vn -0.922300 -0.337500 -0.188500
vn -0.353900 0.895700 -0.269100
vn -0.440000 -0.041900 -0.897000
vn 0.619600 0.747100 -0.240900
vn -0.929900 0.265300 0.254700
vn 0.036700 -0.988200 -0.148800
vn -0.737800 -0.629200 -0.244600
vn -0.951000 -0.100200 -0.292400
vn -0.804700 0.575500 -0.146000
vn -0.264100 0.945000 -0.193200
vn -0.356100 0.280700 -0.891300
vn -0.150600 0.626000 0.765200
vn -0.924600 -0.331900 -0.187100
vn -0.039700 0.998300 -0.042400
vn 0.038400 -0.988100 -0.149200
vn 0.144600 0.986200 -0.081000
vn 0.104100 0.337900 -0.935400
vn 0.132700 -0.966500 -0.219800
vn 0.904400 0.373600 -0.206400
vn 0.089800 0.291500 -0.952300
usemtl Material
s off
f 92/1/1 84/2/1 83/3/1
usemtl Material_NONE
f 3/4/2 9/5/2 14/6/2
f 18/7/3 4/8/3 5/9/3
f 47/10/4 6/11/4 12/12/4
f 16/13/5 66/14/5 67/15/5
f 10/16/6 1/17/6 4/18/6
f 10/19/7 52/20/7 19/21/7
f 5/9/8 4/8/8 23/22/8
f 6/23/9 14/6/9 12/24/9
f 52/25/10 10/26/10 6/27/10
f 2/28/11 17/29/11 11/30/11
f 13/31/12 3/4/12 14/6/12
f 52/32/13 49/33/13 5/34/13
f 46/35/14 53/36/14 9/37/14
f 3/38/15 13/39/15 58/40/15
f 49/41/16 48/42/16 7/43/16
f 2/28/17 9/5/17 8/44/17
f 59/45/18 12/12/18 11/46/18
f 15/47/19 13/39/19 7/48/19
f 65/49/20 77/50/20 24/51/20
f 53/52/21 60/53/21 8/54/21
f 16/13/22 7/48/22 48/55/22
f 15/47/23 67/15/23 58/40/23
f 17/56/24 29/57/24 28/58/24
f 21/59/25 20/60/25 23/61/25
f 1/17/26 22/62/26 23/63/26
f 19/21/27 21/64/27 22/65/27
f 19/66/28 5/34/28 20/67/28
f 7/68/29 13/31/29 14/6/29
f 36/69/30 77/50/30 30/70/30
f 57/71/31 11/72/31 25/73/31
f 11/30/32 17/29/32 24/74/32
f 28/75/33 29/76/33 26/77/33
f 17/29/34 8/44/34 26/78/34
f 60/79/35 65/80/35 28/81/35
f 60/53/36 27/82/36 26/83/36
f 85/84/37 35/85/37 32/86/37
f 76/87/38 25/73/38 37/88/38
f 25/89/39 24/74/39 36/90/39
f 35/91/40 34/92/40 33/93/40
f 84/94/41 34/95/41 35/96/41
f 84/2/42 31/97/42 33/98/42
f 31/99/43 30/100/43 32/101/43
f 92/1/44 37/102/44 31/97/44
f 37/103/45 36/90/45 30/100/45
f 61/104/46 44/105/46 51/106/46
f 42/107/47 41/108/47 68/109/47
f 55/110/48 43/111/48 47/10/48
f 67/15/49 66/14/49 63/112/49
f 41/113/50 38/114/50 51/115/50
f 51/116/51 38/117/51 69/118/51
f 42/107/52 70/119/52 73/120/52
f 51/106/53 43/121/53 61/104/53
f 43/122/54 51/123/54 52/25/54
f 54/124/55 64/125/55 39/126/55
f 39/126/56 50/127/56 61/104/56
f 52/128/57 69/129/57 42/130/57
f 50/131/58 53/36/58 46/35/58
f 40/132/59 46/133/59 58/40/59
f 44/134/60 48/42/60 49/41/60
f 39/126/61 64/125/61 45/135/61
f 59/45/62 57/136/62 54/137/62
f 44/138/63 56/139/63 62/140/63
f 74/141/64 77/50/64 65/49/64
f 45/142/65 60/53/65 53/52/65
f 48/55/66 44/138/66 63/112/66
f 62/140/67 56/139/67 58/40/67
f 80/143/68 81/144/68 64/145/68
f 73/146/69 70/147/69 71/148/69
f 73/149/70 72/150/70 38/114/70
f 72/151/71 71/152/71 69/118/71
f 69/129/72 71/153/72 70/154/72
f 43/121/73 55/155/73 61/104/73
f 77/50/74 90/156/74 82/157/74
f 57/71/75 76/87/75 75/158/75
f 54/124/76 75/159/76 74/160/76
f 80/161/77 79/162/77 78/163/77
f 64/125/78 81/164/78 78/165/78
f 60/166/79 79/144/79 80/167/79
f 78/168/80 79/169/80 60/53/80
f 86/170/81 89/171/81 85/172/81
f 77/173/82 85/174/82 84/175/82
f 76/87/83 92/176/83 91/177/83
f 75/159/84 91/178/84 90/179/84
f 89/180/85 86/181/85 87/182/85
f 89/183/86 88/57/86 84/175/86
f 84/2/87 88/184/87 87/185/87
f 83/186/88 87/187/88 86/188/88
f 91/178/89 83/186/89 82/189/89
f 61/104/90 50/127/90 40/190/90
f 56/191/91 61/104/91 40/190/91
f 44/105/92 61/104/92 56/191/92
f 9/5/93 2/28/93 14/6/93
f 12/24/94 14/6/94 2/28/94
f 14/6/95 10/192/95 7/68/95
f 10/192/96 14/6/96 6/23/96
f 49/193/97 18/7/97 5/9/97
f 59/45/98 47/10/98 12/12/98
f 15/47/99 16/13/99 67/15/99
f 18/194/6 10/16/6 4/18/6
f 1/195/7 10/19/7 19/21/7
f 20/196/8 5/9/8 23/22/8
f 47/197/100 52/25/100 6/27/100
f 12/24/101 2/28/101 11/30/101
f 19/66/102 52/32/102 5/34/102
f 3/198/103 46/35/103 9/37/103
f 46/133/104 3/38/104 58/40/104
f 18/199/105 49/41/105 7/43/105
f 17/29/106 2/28/106 8/44/106
f 57/136/107 59/45/107 11/46/107
f 16/13/108 15/47/108 7/48/108
f 17/200/109 65/49/109 24/51/109
f 9/201/110 53/52/110 8/54/110
f 66/14/111 16/13/111 48/55/111
f 13/39/112 15/47/112 58/40/112
f 65/202/24 17/56/24 28/58/24
f 22/203/113 21/59/113 23/61/113
f 4/18/114 1/17/114 23/63/114
f 1/195/27 19/21/27 22/65/27
f 21/204/115 19/66/115 20/67/115
f 77/50/30 36/69/30 24/51/30
f 77/50/116 85/205/116 30/70/116
f 76/87/117 57/71/117 25/73/117
f 25/89/32 11/30/32 24/74/32
f 27/206/118 28/75/118 26/77/118
f 29/207/34 17/29/34 26/78/34
f 27/208/35 60/79/35 28/81/35
f 8/54/36 60/53/36 26/83/36
f 30/209/37 85/84/37 32/86/37
f 92/176/119 76/87/119 37/88/119
f 37/103/120 25/89/120 36/90/120
f 32/210/121 35/91/121 33/93/121
f 85/211/41 84/94/41 35/96/41
f 34/212/42 84/2/42 33/98/42
f 33/213/43 31/99/43 32/101/43
f 84/2/122 92/1/122 31/97/122
f 31/99/123 37/103/123 30/100/123
f 49/214/124 42/107/124 68/109/124
f 59/45/125 55/110/125 47/10/125
f 62/140/126 67/15/126 63/112/126
f 68/215/50 41/113/50 51/115/50
f 52/46/51 51/116/51 69/118/51
f 41/108/52 42/107/52 73/120/52
f 47/197/127 43/122/127 52/25/127
f 55/155/128 54/124/128 39/126/128
f 55/155/129 39/126/129 61/104/129
f 49/216/130 52/128/130 42/130/130
f 40/217/131 50/131/131 46/35/131
f 56/139/132 40/132/132 58/40/132
f 68/218/133 44/134/133 49/41/133
f 50/127/134 39/126/134 45/135/134
f 55/110/135 59/45/135 54/137/135
f 63/112/136 44/138/136 62/140/136
f 64/219/137 74/141/137 65/49/137
f 50/220/138 45/142/138 53/52/138
f 66/14/139 48/55/139 63/112/139
f 67/15/140 62/140/140 58/40/140
f 65/221/68 80/143/68 64/145/68
f 72/222/141 73/146/141 71/148/141
f 41/113/142 73/149/142 38/114/142
f 38/117/71 72/151/71 69/118/71
f 42/130/143 69/129/143 70/154/143
f 90/156/74 77/50/74 74/141/74
f 77/50/144 82/157/144 85/205/144
f 54/223/145 57/71/145 75/158/145
f 64/125/76 54/124/76 74/160/76
f 81/224/146 80/161/146 78/163/146
f 45/135/78 64/125/78 78/165/78
f 65/225/79 60/166/79 80/167/79
f 45/142/80 78/168/80 60/53/80
f 82/226/81 86/170/81 85/172/81
f 92/227/82 76/228/82 77/173/82
f 77/173/82 84/175/82 92/227/82
f 75/158/147 76/87/147 91/177/147
f 74/160/148 75/159/148 90/179/148
f 88/229/149 89/180/149 87/182/149
f 85/174/86 89/183/86 84/175/86
f 83/3/87 84/2/87 87/185/87
f 82/189/88 83/186/88 86/188/88
f 91/230/150 92/1/150 83/3/150
f 90/179/151 91/178/151 82/189/151
